<mxfile host="app.diagrams.net" agent="Mozilla/5.0 (Macintosh; Intel Mac OS X 10_15_7) AppleWebKit/537.36 (KHTML, like Gecko) Chrome/134.0.0.0 Safari/537.36" version="26.2.1">
  <diagram name="Page-1" id="u7TG_SrK1RbGHk5BaNry">
    <mxGraphModel dx="1787" dy="1128" grid="0" gridSize="10" guides="1" tooltips="1" connect="1" arrows="1" fold="1" page="0" pageScale="1" pageWidth="850" pageHeight="1100" math="0" shadow="0">
      <root>
        <mxCell id="0" />
        <mxCell id="1" parent="0" />
        <mxCell id="za-8XrJXbeV8KuoEuw2I-1" value="I want to book test...." style="rounded=1;whiteSpace=wrap;html=1;" vertex="1" parent="1">
          <mxGeometry x="197" y="126" width="327" height="57" as="geometry" />
        </mxCell>
        <mxCell id="za-8XrJXbeV8KuoEuw2I-2" value="Hint: I want to book B driver license test in Uppsala, as earlier as possible" style="text;html=1;align=center;verticalAlign=middle;whiteSpace=wrap;rounded=0;" vertex="1" parent="1">
          <mxGeometry x="182" y="78" width="429" height="30" as="geometry" />
        </mxCell>
        <mxCell id="za-8XrJXbeV8KuoEuw2I-3" value="Hint: I want to book B driver license test in Uppsala, every Tuesday morning would be good" style="text;html=1;align=center;verticalAlign=middle;whiteSpace=wrap;rounded=0;" vertex="1" parent="1">
          <mxGeometry x="182" y="98" width="522" height="30" as="geometry" />
        </mxCell>
        <mxCell id="za-8XrJXbeV8KuoEuw2I-5" value="" style="endArrow=classic;html=1;rounded=0;" edge="1" parent="1">
          <mxGeometry width="50" height="50" relative="1" as="geometry">
            <mxPoint x="354" y="200" as="sourcePoint" />
            <mxPoint x="354" y="327" as="targetPoint" />
          </mxGeometry>
        </mxCell>
        <mxCell id="za-8XrJXbeV8KuoEuw2I-6" value="If user, clicks any hint; the hint will go in that block, and it&#39;s editable" style="text;html=1;align=center;verticalAlign=middle;whiteSpace=wrap;rounded=0;" vertex="1" parent="1">
          <mxGeometry x="247" y="330" width="231" height="31" as="geometry" />
        </mxCell>
        <mxCell id="za-8XrJXbeV8KuoEuw2I-7" value="I want to book B driver license test in Stockholm, as earlier as possible" style="rounded=1;whiteSpace=wrap;html=1;" vertex="1" parent="1">
          <mxGeometry x="205" y="377" width="327" height="57" as="geometry" />
        </mxCell>
        <mxCell id="za-8XrJXbeV8KuoEuw2I-8" value="" style="endArrow=classic;html=1;rounded=0;" edge="1" parent="1">
          <mxGeometry width="50" height="50" relative="1" as="geometry">
            <mxPoint x="355" y="450" as="sourcePoint" />
            <mxPoint x="355" y="510" as="targetPoint" />
          </mxGeometry>
        </mxCell>
        <mxCell id="za-8XrJXbeV8KuoEuw2I-9" value="Please provide more information about XXX" style="rounded=1;whiteSpace=wrap;html=1;" vertex="1" parent="1">
          <mxGeometry x="154" y="621" width="120" height="60" as="geometry" />
        </mxCell>
        <mxCell id="za-8XrJXbeV8KuoEuw2I-11" style="edgeStyle=orthogonalEdgeStyle;rounded=0;orthogonalLoop=1;jettySize=auto;html=1;entryX=0.5;entryY=0;entryDx=0;entryDy=0;" edge="1" parent="1" source="za-8XrJXbeV8KuoEuw2I-10" target="za-8XrJXbeV8KuoEuw2I-9">
          <mxGeometry relative="1" as="geometry" />
        </mxCell>
        <mxCell id="za-8XrJXbeV8KuoEuw2I-14" style="edgeStyle=orthogonalEdgeStyle;rounded=0;orthogonalLoop=1;jettySize=auto;html=1;" edge="1" parent="1" source="za-8XrJXbeV8KuoEuw2I-10" target="za-8XrJXbeV8KuoEuw2I-13">
          <mxGeometry relative="1" as="geometry" />
        </mxCell>
        <mxCell id="za-8XrJXbeV8KuoEuw2I-10" value="ai agent will check and get back to user if more information is needed" style="text;html=1;align=center;verticalAlign=middle;whiteSpace=wrap;rounded=0;" vertex="1" parent="1">
          <mxGeometry x="231" y="511" width="238" height="30" as="geometry" />
        </mxCell>
        <mxCell id="za-8XrJXbeV8KuoEuw2I-12" value="If needed," style="text;html=1;align=center;verticalAlign=middle;whiteSpace=wrap;rounded=0;" vertex="1" parent="1">
          <mxGeometry x="233" y="584" width="60" height="30" as="geometry" />
        </mxCell>
        <mxCell id="za-8XrJXbeV8KuoEuw2I-13" value="Is my understanding correct, that you want to xxxx" style="rounded=1;whiteSpace=wrap;html=1;" vertex="1" parent="1">
          <mxGeometry x="426" y="624" width="226" height="60" as="geometry" />
        </mxCell>
        <mxCell id="za-8XrJXbeV8KuoEuw2I-18" value="" style="edgeStyle=orthogonalEdgeStyle;rounded=0;orthogonalLoop=1;jettySize=auto;html=1;" edge="1" parent="1" source="za-8XrJXbeV8KuoEuw2I-15" target="za-8XrJXbeV8KuoEuw2I-17">
          <mxGeometry relative="1" as="geometry" />
        </mxCell>
        <mxCell id="za-8XrJXbeV8KuoEuw2I-15" value="Yes" style="shape=process;whiteSpace=wrap;html=1;backgroundOutline=1;" vertex="1" parent="1">
          <mxGeometry x="512" y="701" width="64" height="22" as="geometry" />
        </mxCell>
        <mxCell id="za-8XrJXbeV8KuoEuw2I-21" style="edgeStyle=orthogonalEdgeStyle;rounded=0;orthogonalLoop=1;jettySize=auto;html=1;" edge="1" parent="1" source="za-8XrJXbeV8KuoEuw2I-16" target="za-8XrJXbeV8KuoEuw2I-22">
          <mxGeometry relative="1" as="geometry">
            <mxPoint x="716" y="768" as="targetPoint" />
          </mxGeometry>
        </mxCell>
        <mxCell id="za-8XrJXbeV8KuoEuw2I-16" value="No" style="shape=process;whiteSpace=wrap;html=1;backgroundOutline=1;" vertex="1" parent="1">
          <mxGeometry x="590" y="701" width="64" height="22" as="geometry" />
        </mxCell>
        <mxCell id="za-8XrJXbeV8KuoEuw2I-20" value="" style="edgeStyle=orthogonalEdgeStyle;rounded=0;orthogonalLoop=1;jettySize=auto;html=1;" edge="1" parent="1" source="za-8XrJXbeV8KuoEuw2I-17" target="za-8XrJXbeV8KuoEuw2I-19">
          <mxGeometry relative="1" as="geometry" />
        </mxCell>
        <mxCell id="za-8XrJXbeV8KuoEuw2I-17" value="The system starts" style="whiteSpace=wrap;html=1;" vertex="1" parent="1">
          <mxGeometry x="484" y="784" width="120" height="60" as="geometry" />
        </mxCell>
        <mxCell id="za-8XrJXbeV8KuoEuw2I-19" value="show QR code" style="whiteSpace=wrap;html=1;" vertex="1" parent="1">
          <mxGeometry x="484" y="924" width="120" height="60" as="geometry" />
        </mxCell>
        <mxCell id="za-8XrJXbeV8KuoEuw2I-22" value="User gets back" style="rounded=0;whiteSpace=wrap;html=1;" vertex="1" parent="1">
          <mxGeometry x="656" y="738" width="120" height="60" as="geometry" />
        </mxCell>
      </root>
    </mxGraphModel>
  </diagram>
</mxfile>
